  0
SECTION
  2
BLOCKS
  0
ENDSEC
  0
SECTION
  2
ENTITIES
  0
LINE
  8
0
 10
-2.94316
 20
-20.6274
 11
-2.94316
 21
-18.1053
  0
LINE
  8
0
 10
-2.94316
 20
-18.1053
 11
5.47368
 21
-18.1053
  0
LINE
  8
0
 10
5.47368
 20
-18.1053
 11
5.47368
 21
-22.3158
  0
LINE
  8
0
 10
5.47368
 20
-22.3158
 11
13.8989
 21
-22.3158
  0
LINE
  8
0
 10
13.8989
 20
-22.3158
 11
13.8989
 21
-18.101
  0
LINE
  8
0
 10
13.8989
 20
-18.101
 11
9.68842
 21
-18.101
  0
LINE
  8
0
 10
9.68842
 20
-18.101
 11
9.68842
 21
-13.8947
  0
LINE
  8
0
 10
9.68842
 20
-13.8947
 11
13.8947
 21
-13.8947
  0
LINE
  8
0
 10
13.8947
 20
-13.8947
 11
13.8947
 21
-16.4211
  0
LINE
  8
0
 10
13.8947
 20
-16.4211
 11
20.6358
 21
-16.4211
  0
LINE
  8
0
 10
20.6358
 20
-16.4211
 11
20.6358
 21
-9.68
  0
LINE
  8
0
 10
20.6358
 20
-9.68
 11
18.1095
 21
-9.68
  0
LINE
  8
0
 10
18.1095
 20
-9.68
 11
18.1095
 21
-5.47368
  0
LINE
  8
0
 10
18.1095
 20
-5.47368
 11
20.6358
 21
-5.47368
  0
LINE
  8
0
 10
20.6358
 20
-5.47368
 11
20.6358
 21
-3.78947
  0
LINE
  8
0
 10
20.6358
 20
-3.78947
 11
22.32
 21
-3.78947
  0
LINE
  8
0
 10
22.32
 20
-3.78947
 11
22.32
 21
4.63579
  0
LINE
  8
0
 10
22.32
 20
4.63579
 11
20.6316
 21
4.63579
  0
LINE
  8
0
 10
20.6316
 20
4.63579
 11
20.6316
 21
0.425267
  0
LINE
  8
0
 10
20.6316
 20
0.425267
 11
16.4253
 21
0.425267
  0
LINE
  8
0
 10
16.4253
 20
0.425267
 11
16.4253
 21
2.94737
  0
LINE
  8
0
 10
16.4253
 20
2.94737
 11
18.1095
 21
2.94737
  0
LINE
  8
0
 10
18.1095
 20
2.94737
 11
18.1095
 21
4.63579
  0
LINE
  8
0
 10
18.1095
 20
4.63579
 11
12.2105
 21
4.63579
  0
LINE
  8
0
 10
12.2105
 20
4.63579
 11
12.2105
 21
0.425267
  0
LINE
  8
0
 10
12.2105
 20
0.425267
 11
9.68842
 21
0.425267
  0
LINE
  8
0
 10
9.68842
 20
0.425267
 11
9.68842
 21
2.95158
  0
LINE
  8
0
 10
9.68842
 20
2.95158
 11
8.00421
 21
2.95158
  0
LINE
  8
0
 10
8.00421
 20
2.95158
 11
8.00421
 21
4.63579
  0
LINE
  8
0
 10
8.00421
 20
4.63579
 11
5.47789
 21
4.63579
  0
LINE
  8
0
 10
5.47789
 20
4.63579
 11
5.47789
 21
11.3726
  0
LINE
  8
0
 10
5.47789
 20
11.3726
 11
3.79368
 21
11.3726
  0
LINE
  8
0
 10
3.79368
 20
11.3726
 11
3.79368
 21
13.0526
  0
LINE
  8
0
 10
3.79368
 20
13.0526
 11
5.47789
 21
13.0526
  0
LINE
  8
0
 10
5.47789
 20
13.0526
 11
5.47789
 21
15.5832
  0
LINE
  8
0
 10
5.47789
 20
15.5832
 11
3.79368
 21
15.5832
  0
LINE
  8
0
 10
3.79368
 20
15.5832
 11
3.79368
 21
19.7895
  0
LINE
  8
0
 10
3.79368
 20
19.7895
 11
5.47789
 21
19.7895
  0
LINE
  8
0
 10
5.47789
 20
19.7895
 11
5.47789
 21
21.4779
  0
LINE
  8
0
 10
5.47789
 20
21.4779
 11
-0.421053
 21
21.4779
  0
LINE
  8
0
 10
-0.421053
 20
21.4779
 11
-0.421053
 21
17.2674
  0
LINE
  8
0
 10
-0.421053
 20
17.2674
 11
-4.63158
 21
17.2674
  0
LINE
  8
0
 10
-4.63158
 20
17.2674
 11
-4.63158
 21
11.3684
  0
LINE
  8
0
 10
-4.63158
 20
11.3684
 11
-2.94737
 21
11.3684
  0
LINE
  8
0
 10
-2.94737
 20
11.3684
 11
-2.94737
 21
8.84632
  0
LINE
  8
0
 10
-2.94737
 20
8.84632
 11
-4.63158
 21
8.84632
  0
LINE
  8
0
 10
-4.63158
 20
8.84632
 11
-4.63158
 21
7.15789
  0
LINE
  8
0
 10
-4.63158
 20
7.15789
 11
-2.94316
 21
7.15789
  0
LINE
  8
0
 10
-2.94316
 20
7.15789
 11
-2.94316
 21
8.84211
  0
LINE
  8
0
 10
-2.94316
 20
8.84211
 11
-0.421053
 21
8.84211
  0
LINE
  8
0
 10
-0.421053
 20
8.84211
 11
-0.421053
 21
7.15789
  0
LINE
  8
0
 10
-0.421053
 20
7.15789
 11
1.26316
 21
7.15789
  0
LINE
  8
0
 10
1.26316
 20
7.15789
 11
1.26316
 21
4.63579
  0
LINE
  8
0
 10
1.26316
 20
4.63579
 11
-4.63158
 21
4.63579
  0
LINE
  8
0
 10
-4.63158
 20
4.63579
 11
-4.63158
 21
-1.26316
  0
LINE
  8
0
 10
-4.63158
 20
-1.26316
 11
3.78947
 21
-1.26316
  0
LINE
  8
0
 10
3.78947
 20
-1.26316
 11
3.78947
 21
-3.78526
  0
LINE
  8
0
 10
3.78947
 20
-3.78526
 11
-0.421053
 21
-3.78526
  0
LINE
  8
0
 10
-0.421053
 20
-3.78526
 11
-0.421053
 21
-5.47368
  0
LINE
  8
0
 10
-0.421053
 20
-5.47368
 11
1.26316
 21
-5.47368
  0
LINE
  8
0
 10
1.26316
 20
-5.47368
 11
1.26316
 21
-7.99579
  0
LINE
  8
0
 10
1.26316
 20
-7.99579
 11
-0.421053
 21
-7.99579
  0
LINE
  8
0
 10
-0.421053
 20
-7.99579
 11
-0.421053
 21
-9.68421
  0
LINE
  8
0
 10
-0.421053
 20
-9.68421
 11
3.78947
 21
-9.68421
  0
LINE
  8
0
 10
3.78947
 20
-9.68421
 11
3.78947
 21
-12.2063
  0
LINE
  8
0
 10
3.78947
 20
-12.2063
 11
-2.94737
 21
-12.2063
  0
LINE
  8
0
 10
-2.94737
 20
-12.2063
 11
-2.94737
 21
-13.8905
  0
LINE
  8
0
 10
-2.94737
 20
-13.8905
 11
-4.63158
 21
-13.8905
  0
LINE
  8
0
 10
-4.63158
 20
-13.8905
 11
-4.63158
 21
-22.3158
  0
LINE
  8
0
 10
-4.63158
 20
-22.3158
 11
-0.416844
 21
-22.3158
  0
LINE
  8
0
 10
-0.416844
 20
-22.3158
 11
-0.416844
 21
-20.6274
  0
LINE
  8
0
 10
-0.416844
 20
-20.6274
 11
-2.94316
 21
-20.6274
  0
LINE
  8
0
 10
-0.416844
 20
13.0526
 11
-0.416844
 21
17.2632
  0
LINE
  8
0
 10
-0.416844
 20
17.2632
 11
1.26316
 21
17.2632
  0
LINE
  8
0
 10
1.26316
 20
17.2632
 11
1.26316
 21
15.5789
  0
LINE
  8
0
 10
1.26316
 20
15.5789
 11
3.78947
 21
15.5789
  0
LINE
  8
0
 10
3.78947
 20
15.5789
 11
3.78947
 21
13.0568
  0
LINE
  8
0
 10
3.78947
 20
13.0568
 11
1.26316
 21
13.0568
  0
LINE
  8
0
 10
1.26316
 20
13.0568
 11
1.26316
 21
11.3726
  0
LINE
  8
0
 10
1.26316
 20
11.3726
 11
-2.94316
 21
11.3726
  0
LINE
  8
0
 10
-2.94316
 20
11.3726
 11
-2.94316
 21
13.0526
  0
LINE
  8
0
 10
-2.94316
 20
13.0526
 11
-0.416844
 21
13.0526
  0
LINE
  8
0
 10
3.78947
 20
8.84211
 11
3.78947
 21
7.16211
  0
LINE
  8
0
 10
3.78947
 20
7.16211
 11
1.26737
 21
7.16211
  0
LINE
  8
0
 10
1.26737
 20
7.16211
 11
1.26737
 21
8.84211
  0
LINE
  8
0
 10
1.26737
 20
8.84211
 11
3.78947
 21
8.84211
  0
LINE
  8
0
 10
3.78947
 20
2.94737
 11
3.78947
 21
0.425267
  0
LINE
  8
0
 10
3.78947
 20
0.425267
 11
-2.94316
 21
0.425267
  0
LINE
  8
0
 10
-2.94316
 20
0.425267
 11
-2.94316
 21
2.94737
  0
LINE
  8
0
 10
-2.94316
 20
2.94737
 11
3.78947
 21
2.94737
  0
LINE
  8
0
 10
3.79368
 20
-9.68
 11
3.79368
 21
-8
  0
LINE
  8
0
 10
3.79368
 20
-8
 11
9.68842
 21
-8
  0
LINE
  8
0
 10
9.68842
 20
-8
 11
9.68842
 21
-5.46947
  0
LINE
  8
0
 10
9.68842
 20
-5.46947
 11
8.00421
 21
-5.46947
  0
LINE
  8
0
 10
8.00421
 20
-5.46947
 11
8.00421
 21
-3.78526
  0
LINE
  8
0
 10
8.00421
 20
-3.78526
 11
5.47789
 21
-3.78526
  0
LINE
  8
0
 10
5.47789
 20
-3.78526
 11
5.47789
 21
-1.25894
  0
LINE
  8
0
 10
5.47789
 20
-1.25894
 11
3.79368
 21
-1.25894
  0
LINE
  8
0
 10
3.79368
 20
-1.25894
 11
3.79368
 21
0.421053
  0
LINE
  8
0
 10
3.79368
 20
0.421053
 11
5.47789
 21
0.421053
  0
LINE
  8
0
 10
5.47789
 20
0.421053
 11
5.47789
 21
2.94737
  0
LINE
  8
0
 10
5.47789
 20
2.94737
 11
8
 21
2.94737
  0
LINE
  8
0
 10
8
 20
2.94737
 11
8
 21
-1.26316
  0
LINE
  8
0
 10
8
 20
-1.26316
 11
9.68421
 21
-1.26316
  0
LINE
  8
0
 10
9.68421
 20
-1.26316
 11
9.68421
 21
-3.78947
  0
LINE
  8
0
 10
9.68421
 20
-3.78947
 11
12.2105
 21
-3.78947
  0
LINE
  8
0
 10
12.2105
 20
-3.78947
 11
12.2105
 21
-9.68
  0
LINE
  8
0
 10
12.2105
 20
-9.68
 11
9.68421
 21
-9.68
  0
LINE
  8
0
 10
9.68421
 20
-9.68
 11
9.68421
 21
-12.2063
  0
LINE
  8
0
 10
9.68421
 20
-12.2063
 11
8.00421
 21
-12.2063
  0
LINE
  8
0
 10
8.00421
 20
-12.2063
 11
8.00421
 21
-9.68
  0
LINE
  8
0
 10
8.00421
 20
-9.68
 11
3.79368
 21
-9.68
  0
LINE
  8
0
 10
16.4211
 20
0.421053
 11
16.4211
 21
-1.25894
  0
LINE
  8
0
 10
16.4211
 20
-1.25894
 11
13.8947
 21
-1.25894
  0
LINE
  8
0
 10
13.8947
 20
-1.25894
 11
13.8947
 21
-3.78526
  0
LINE
  8
0
 10
13.8947
 20
-3.78526
 11
12.2147
 21
-3.78526
  0
LINE
  8
0
 10
12.2147
 20
-3.78526
 11
12.2147
 21
0.421053
  0
LINE
  8
0
 10
12.2147
 20
0.421053
 11
16.4211
 21
0.421053
  0
LINE
  8
0
 10
16.4253
 20
-3.78947
 11
16.4253
 21
-1.26316
  0
LINE
  8
0
 10
16.4253
 20
-1.26316
 11
20.6316
 21
-1.26316
  0
LINE
  8
0
 10
20.6316
 20
-1.26316
 11
20.6316
 21
-3.78526
  0
LINE
  8
0
 10
20.6316
 20
-3.78526
 11
18.1053
 21
-3.78526
  0
LINE
  8
0
 10
18.1053
 20
-3.78526
 11
18.1053
 21
-5.46947
  0
LINE
  8
0
 10
18.1053
 20
-5.46947
 11
16.4211
 21
-5.46947
  0
LINE
  8
0
 10
16.4211
 20
-5.46947
 11
16.4211
 21
-7.99579
  0
LINE
  8
0
 10
16.4211
 20
-7.99579
 11
13.8989
 21
-7.99579
  0
LINE
  8
0
 10
13.8989
 20
-7.99579
 11
13.8989
 21
-3.78947
  0
LINE
  8
0
 10
13.8989
 20
-3.78947
 11
16.4253
 21
-3.78947
  0
LINE
  8
0
 10
5.47368
 20
-3.78947
 11
5.47368
 21
-5.46947
  0
LINE
  8
0
 10
5.47368
 20
-5.46947
 11
3.79368
 21
-5.46947
  0
LINE
  8
0
 10
3.79368
 20
-5.46947
 11
3.79368
 21
-3.78947
  0
LINE
  8
0
 10
3.79368
 20
-3.78947
 11
5.47368
 21
-3.78947
  0
LINE
  8
0
 10
16.4211
 20
-9.68421
 11
16.4211
 21
-12.2063
  0
LINE
  8
0
 10
16.4211
 20
-12.2063
 11
12.2147
 21
-12.2063
  0
LINE
  8
0
 10
12.2147
 20
-12.2063
 11
12.2147
 21
-9.68421
  0
LINE
  8
0
 10
12.2147
 20
-9.68421
 11
16.4211
 21
-9.68421
  0
LINE
  8
0
 10
5.47789
 20
-13.8947
 11
5.47789
 21
-12.2105
  0
LINE
  8
0
 10
5.47789
 20
-12.2105
 11
8
 21
-12.2105
  0
LINE
  8
0
 10
8
 20
-12.2105
 11
8
 21
-16.4168
  0
LINE
  8
0
 10
8
 20
-16.4168
 11
3.79368
 21
-16.4168
  0
LINE
  8
0
 10
3.79368
 20
-16.4168
 11
3.79368
 21
-13.8947
  0
LINE
  8
0
 10
3.79368
 20
-13.8947
 11
5.47789
 21
-13.8947
  0
LINE
  8
0
 10
-0.421053
 20
-13.8947
 11
-0.421053
 21
-16.4168
  0
LINE
  8
0
 10
-0.421053
 20
-16.4168
 11
-2.94316
 21
-16.4168
  0
LINE
  8
0
 10
-2.94316
 20
-16.4168
 11
-2.94316
 21
-13.8947
  0
LINE
  8
0
 10
-2.94316
 20
-13.8947
 11
-0.421053
 21
-13.8947
  0
LINE
  8
0
 10
8
 20
21.4779
 11
8
 21
7.15789
  0
LINE
  8
0
 10
8
 20
7.15789
 11
22.32
 21
7.15789
  0
LINE
  8
0
 10
22.32
 20
7.15789
 11
22.32
 21
21.4779
  0
LINE
  8
0
 10
22.32
 20
21.4779
 11
8
 21
21.4779
  0
LINE
  8
0
 10
20.6316
 20
19.7895
 11
20.6316
 21
8.84632
  0
LINE
  8
0
 10
20.6316
 20
8.84632
 11
9.68842
 21
8.84632
  0
LINE
  8
0
 10
9.68842
 20
8.84632
 11
9.68842
 21
19.7895
  0
LINE
  8
0
 10
9.68842
 20
19.7895
 11
20.6316
 21
19.7895
  0
LINE
  8
0
 10
12.2105
 20
17.2674
 11
12.2105
 21
11.3684
  0
LINE
  8
0
 10
12.2105
 20
11.3684
 11
18.1095
 21
11.3684
  0
LINE
  8
0
 10
18.1095
 20
11.3684
 11
18.1095
 21
17.2674
  0
LINE
  8
0
 10
18.1095
 20
17.2674
 11
12.2105
 21
17.2674
  0
LINE
  8
0
 10
-4.63158
 20
21.4779
 11
-4.63158
 21
19.7895
  0
LINE
  8
0
 10
-4.63158
 20
19.7895
 11
-2.94316
 21
19.7895
  0
LINE
  8
0
 10
-2.94316
 20
19.7895
 11
-2.94316
 21
21.4779
  0
LINE
  8
0
 10
-2.94316
 20
21.4779
 11
-4.63158
 21
21.4779
  0
LINE
  8
0
 10
-21.4737
 20
21.4779
 11
-21.4737
 21
7.15789
  0
LINE
  8
0
 10
-21.4737
 20
7.15789
 11
-7.15369
 21
7.15789
  0
LINE
  8
0
 10
-7.15369
 20
7.15789
 11
-7.15369
 21
21.4779
  0
LINE
  8
0
 10
-7.15369
 20
21.4779
 11
-21.4737
 21
21.4779
  0
LINE
  8
0
 10
-8.84211
 20
19.7895
 11
-8.84211
 21
8.84632
  0
LINE
  8
0
 10
-8.84211
 20
8.84632
 11
-19.7853
 21
8.84632
  0
LINE
  8
0
 10
-19.7853
 20
8.84632
 11
-19.7853
 21
19.7895
  0
LINE
  8
0
 10
-19.7853
 20
19.7895
 11
-8.84211
 21
19.7895
  0
LINE
  8
0
 10
-17.2632
 20
17.2674
 11
-17.2632
 21
11.3684
  0
LINE
  8
0
 10
-17.2632
 20
11.3684
 11
-11.3642
 21
11.3684
  0
LINE
  8
0
 10
-11.3642
 20
11.3684
 11
-11.3642
 21
17.2674
  0
LINE
  8
0
 10
-11.3642
 20
17.2674
 11
-17.2632
 21
17.2674
  0
LINE
  8
0
 10
-8.84211
 20
-3.78947
 11
-8.84211
 21
-5.47368
  0
LINE
  8
0
 10
-8.84211
 20
-5.47368
 11
-7.15369
 21
-5.47368
  0
LINE
  8
0
 10
-7.15369
 20
-5.47368
 11
-7.15369
 21
-3.78526
  0
LINE
  8
0
 10
-7.15369
 20
-3.78526
 11
-8.8379
 21
-3.78526
  0
LINE
  8
0
 10
-8.8379
 20
-3.78526
 11
-8.8379
 21
-1.26316
  0
LINE
  8
0
 10
-8.8379
 20
-1.26316
 11
-7.15369
 21
-1.26316
  0
LINE
  8
0
 10
-7.15369
 20
-1.26316
 11
-7.15369
 21
0.425267
  0
LINE
  8
0
 10
-7.15369
 20
0.425267
 11
-8.8379
 21
0.425267
  0
LINE
  8
0
 10
-8.8379
 20
0.425267
 11
-8.8379
 21
2.94737
  0
LINE
  8
0
 10
-8.8379
 20
2.94737
 11
-7.15369
 21
2.94737
  0
LINE
  8
0
 10
-7.15369
 20
2.94737
 11
-7.15369
 21
4.63579
  0
LINE
  8
0
 10
-7.15369
 20
4.63579
 11
-8.84211
 21
4.63579
  0
LINE
  8
0
 10
-8.84211
 20
4.63579
 11
-8.84211
 21
2.95158
  0
LINE
  8
0
 10
-8.84211
 20
2.95158
 11
-13.0484
 21
2.95158
  0
LINE
  8
0
 10
-13.0484
 20
2.95158
 11
-13.0484
 21
4.63579
  0
LINE
  8
0
 10
-13.0484
 20
4.63579
 11
-21.4737
 21
4.63579
  0
LINE
  8
0
 10
-21.4737
 20
4.63579
 11
-21.4737
 21
-1.26316
  0
LINE
  8
0
 10
-21.4737
 20
-1.26316
 11
-19.7895
 21
-1.26316
  0
LINE
  8
0
 10
-19.7895
 20
-1.26316
 11
-19.7895
 21
-3.78947
  0
LINE
  8
0
 10
-19.7895
 20
-3.78947
 11
-17.2632
 21
-3.78947
  0
LINE
  8
0
 10
-17.2632
 20
-3.78947
 11
-17.2632
 21
-5.47368
  0
LINE
  8
0
 10
-17.2632
 20
-5.47368
 11
-15.5747
 21
-5.47368
  0
LINE
  8
0
 10
-15.5747
 20
-5.47368
 11
-15.5747
 21
-3.78947
  0
LINE
  8
0
 10
-15.5747
 20
-3.78947
 11
-8.84211
 21
-3.78947
  0
LINE
  8
0
 10
-17.2632
 20
0.421053
 11
-17.2632
 21
-1.25894
  0
LINE
  8
0
 10
-17.2632
 20
-1.25894
 11
-19.7853
 21
-1.25894
  0
LINE
  8
0
 10
-19.7853
 20
-1.25894
 11
-19.7853
 21
0.421053
  0
LINE
  8
0
 10
-19.7853
 20
0.421053
 11
-17.2632
 21
0.421053
  0
LINE
  8
0
 10
-8.84211
 20
0.421053
 11
-8.84211
 21
-1.25894
  0
LINE
  8
0
 10
-8.84211
 20
-1.25894
 11
-15.5747
 21
-1.25894
  0
LINE
  8
0
 10
-15.5747
 20
-1.25894
 11
-15.5747
 21
0.421053
  0
LINE
  8
0
 10
-15.5747
 20
0.421053
 11
-8.84211
 21
0.421053
  0
LINE
  8
0
 10
-15.5789
 20
-1.26316
 11
-15.5789
 21
-3.78526
  0
LINE
  8
0
 10
-15.5789
 20
-3.78526
 11
-17.2589
 21
-3.78526
  0
LINE
  8
0
 10
-17.2589
 20
-3.78526
 11
-17.2589
 21
-1.26316
  0
LINE
  8
0
 10
-17.2589
 20
-1.26316
 11
-15.5789
 21
-1.26316
  0
LINE
  8
0
 10
-4.63158
 20
-3.78526
 11
-4.63158
 21
-8
  0
LINE
  8
0
 10
-4.63158
 20
-8
 11
-2.94316
 21
-8
  0
LINE
  8
0
 10
-2.94316
 20
-8
 11
-2.94316
 21
-3.78526
  0
LINE
  8
0
 10
-2.94316
 20
-3.78526
 11
-4.63158
 21
-3.78526
  0
LINE
  8
0
 10
-21.4737
 20
-7.99579
 11
-21.4737
 21
-22.3158
  0
LINE
  8
0
 10
-21.4737
 20
-22.3158
 11
-7.15369
 21
-22.3158
  0
LINE
  8
0
 10
-7.15369
 20
-22.3158
 11
-7.15369
 21
-7.99579
  0
LINE
  8
0
 10
-7.15369
 20
-7.99579
 11
-21.4737
 21
-7.99579
  0
LINE
  8
0
 10
-8.84211
 20
-9.68421
 11
-8.84211
 21
-20.6274
  0
LINE
  8
0
 10
-8.84211
 20
-20.6274
 11
-19.7853
 21
-20.6274
  0
LINE
  8
0
 10
-19.7853
 20
-20.6274
 11
-19.7853
 21
-9.68421
  0
LINE
  8
0
 10
-19.7853
 20
-9.68421
 11
-8.84211
 21
-9.68421
  0
LINE
  8
0
 10
-17.2632
 20
-12.2063
 11
-17.2632
 21
-18.1053
  0
LINE
  8
0
 10
-17.2632
 20
-18.1053
 11
-11.3642
 21
-18.1053
  0
LINE
  8
0
 10
-11.3642
 20
-18.1053
 11
-11.3642
 21
-12.2063
  0
LINE
  8
0
 10
-11.3642
 20
-12.2063
 11
-17.2632
 21
-12.2063
  0
LINE
  8
0
 10
20.6316
 20
-18.101
 11
20.6316
 21
-20.6316
  0
LINE
  8
0
 10
20.6316
 20
-20.6316
 11
22.32
 21
-20.6316
  0
LINE
  8
0
 10
22.32
 20
-20.6316
 11
22.32
 21
-18.101
  0
LINE
  8
0
 10
22.32
 20
-18.101
 11
20.6316
 21
-18.101
  0
LINE
  8
0
 10
16.4211
 20
-20.6274
 11
16.4211
 21
-22.3158
  0
LINE
  8
0
 10
16.4211
 20
-22.3158
 11
18.1095
 21
-22.3158
  0
LINE
  8
0
 10
18.1095
 20
-22.3158
 11
18.1095
 21
-20.6274
  0
LINE
  8
0
 10
18.1095
 20
-20.6274
 11
16.4211
 21
-20.6274
  0
LINE
  8
0
 10
1.26316
 20
-20.6274
 11
1.26316
 21
-22.3158
  0
LINE
  8
0
 10
1.26316
 20
-22.3158
 11
3.79368
 21
-22.3158
  0
LINE
  8
0
 10
3.79368
 20
-22.3158
 11
3.79368
 21
-20.6274
  0
LINE
  8
0
 10
3.79368
 20
-20.6274
 11
1.26316
 21
-20.6274
  0
ENDSEC
  0
SECTION
  2
OBJECTS
  0
DICTIONARY
  0
ENDSEC
  0
EOF
